#N canvas 667 125 565 473 10;
#X obj 110 100 abl_link~;
#X obj 61 167 print;
#X obj 76 14 loadbang;
#X obj 75 36 tgl 15 0 empty empty empty 17 7 0 10 -262144 -1 -1 1 1
;
#X msg 85 71 connect \$1;
#X obj 110 234 phasor~;
#X obj 93 311 dac~;
#X obj 108 273 *~ 0.1;
#X msg 104 195 400;
#X msg 134 195 200;
#X msg 165 193 300;
#X msg 194 195 450;
#X obj 105 147 select 0 1 2 3;
#X connect 0 0 1 0;
#X connect 0 0 12 0;
#X connect 2 0 3 0;
#X connect 3 0 4 0;
#X connect 4 0 0 0;
#X connect 5 0 7 0;
#X connect 7 0 6 0;
#X connect 7 0 6 1;
#X connect 8 0 5 0;
#X connect 9 0 5 0;
#X connect 10 0 5 0;
#X connect 11 0 5 0;
#X connect 12 0 8 0;
#X connect 12 1 9 0;
#X connect 12 2 10 0;
#X connect 12 3 11 0;
